<?xml version="1.0" standalone="no"?>
<!DOCTYPE svg PUBLIC "-//W3C//DTD SVG 20010904//EN"
 "http://www.w3.org/TR/2001/REC-SVG-20010904/DTD/svg10.dtd">
<svg version="1.0" xmlns="http://www.w3.org/2000/svg"
 width="1311.000000pt" height="1311.000000pt" viewBox="0 0 1311.000000 1311.000000"
 preserveAspectRatio="xMidYMid meet">
<metadata>
Created by potrace 1.11, written by Peter Selinger 2001-2013
</metadata>
<g transform="translate(0.000000,1311.000000) scale(0.100000,-0.100000)"
fill="#000000" stroke="none">
<path d="M3170 8210 l0 -4780 195 0 195 0 3 4058 2 4057 23 100 c110 479 457
822 942 932 69 16 268 17 2593 20 l2517 3 0 -625 0 -625 195 0 195 0 0 820 0
820 -3430 0 -3430 0 0 -4780z"/>
<path d="M7230 9935 l0 -2056 718 3 717 3 70 25 c147 51 280 170 346 308 62
128 59 29 59 1985 l0 1787 -955 0 -955 0 0 -2055z"/>
<path d="M9410 11165 l0 -105 310 0 310 0 0 105 0 105 -310 0 -310 0 0 -105z"/>
<path d="M4845 10916 c-296 -57 -546 -246 -677 -511 -79 -158 -102 -274 -95
-467 5 -158 23 -238 81 -364 171 -368 564 -590 968 -545 420 47 756 357 833
766 25 132 17 329 -19 448 -50 169 -133 304 -257 422 -126 120 -257 193 -419
235 -107 28 -311 36 -415 16z"/>
<path d="M9755 10916 c-164 -72 -146 -320 28 -367 183 -49 321 168 199 313
-51 60 -156 85 -227 54z"/>
<path d="M9637 6153 l-3 -4308 -21 -96 c-57 -257 -155 -466 -307 -655 -213
-266 -506 -443 -865 -526 l-96 -22 -2392 -3 -2393 -3 0 195 0 195 -195 0 -195
0 0 -390 0 -390 3430 0 3430 0 0 5155 0 5155 -195 0 -195 0 -3 -4307z"/>
<path d="M7227 5403 c-3 -2163 3 -1962 -64 -2168 -93 -287 -234 -423 -475
-457 -295 -42 -526 129 -642 477 -64 190 -60 51 -63 2168 l-3 1927 -951 0
-950 0 4 -1952 c3 -2095 0 -1968 52 -2268 41 -240 127 -529 222 -746 151 -348
315 -597 538 -819 366 -365 746 -547 1301 -622 182 -24 648 -24 824 0 542 76
931 266 1300 636 192 193 328 382 454 629 207 410 317 820 356 1331 6 86 10
809 10 1978 l0 1843 -955 0 -955 0 -3 -1957z"/>
<path d="M3390 2999 c0 -12 -26 -47 -60 -83 -68 -71 -90 -116 -90 -181 0 -67
23 -111 90 -176 80 -77 81 -99 4 -171 -66 -62 -93 -115 -94 -181 0 -68 22
-113 90 -178 49 -46 60 -63 60 -89 0 -26 -11 -43 -60 -89 -68 -65 -90 -110
-90 -178 1 -66 28 -119 94 -181 31 -29 56 -61 56 -72 0 -18 7 -20 65 -20 61 0
65 1 65 23 0 30 -37 87 -83 127 -47 41 -67 78 -67 125 0 49 13 71 80 136 96
92 96 166 0 258 -67 65 -80 87 -80 136 0 47 20 84 67 125 108 93 110 191 6
276 -68 56 -91 130 -59 192 8 15 36 47 61 72 48 46 75 93 75 130 0 18 -6 20
-65 20 -59 0 -65 -2 -65 -21z"/>
</g>
</svg>
